<svg id="Capa_1" data-name="Capa 1" xmlns="http://www.w3.org/2000/svg" xmlns:xlink="http://www.w3.org/1999/xlink" viewBox="0 0 1334.84 785.24"><defs><style>.cls-1,.cls-10,.cls-11,.cls-12,.cls-13,.cls-14,.cls-15,.cls-16,.cls-17,.cls-18,.cls-19,.cls-2,.cls-20,.cls-21,.cls-3,.cls-4,.cls-5,.cls-6,.cls-7,.cls-8,.cls-9{stroke:#000;stroke-miterlimit:10;}.cls-1{fill:url(#Degradado_sin_nombre_13);}.cls-2{fill:url(#Degradado_sin_nombre_13-2);}.cls-3{fill:url(#Degradado_sin_nombre_13-3);}.cls-4{fill:url(#Degradado_sin_nombre_13-4);}.cls-5{fill:url(#Degradado_sin_nombre_13-5);}.cls-6{fill:url(#Degradado_sin_nombre_13-6);}.cls-7{fill:url(#Degradado_sin_nombre_13-7);}.cls-8{fill:url(#Degradado_sin_nombre_13-8);}.cls-9{fill:url(#Degradado_sin_nombre_13-9);}.cls-10{fill:url(#Degradado_sin_nombre_13-10);}.cls-11{fill:url(#Degradado_sin_nombre_13-11);}.cls-12{fill:url(#Degradado_sin_nombre_13-12);}.cls-13{fill:url(#Degradado_sin_nombre_13-13);}.cls-14{fill:url(#Degradado_sin_nombre_13-14);}.cls-15{fill:url(#Degradado_sin_nombre_13-15);}.cls-16{fill:url(#Degradado_sin_nombre_13-16);}.cls-17{fill:url(#Degradado_sin_nombre_13-17);}.cls-18{fill:url(#Degradado_sin_nombre_13-18);}.cls-19{fill:url(#Degradado_sin_nombre_13-19);}.cls-20{fill:url(#Degradado_sin_nombre_13-20);}.cls-21{fill:url(#Degradado_sin_nombre_13-21);}</style><linearGradient id="Degradado_sin_nombre_13" x1="32.66" y1="283.27" x2="594.7" y2="283.27" gradientUnits="userSpaceOnUse"><stop offset="0" stop-color="#d8a517"/><stop offset="0.5" stop-color="#f8f09d"/><stop offset="0.8" stop-color="#c9af68"/></linearGradient><linearGradient id="Degradado_sin_nombre_13-2" x1="842.29" y1="283.29" x2="1314.22" y2="283.29" xlink:href="#Degradado_sin_nombre_13"/><linearGradient id="Degradado_sin_nombre_13-3" x1="0.5" y1="583.29" x2="1334.34" y2="583.29" xlink:href="#Degradado_sin_nombre_13"/><linearGradient id="Degradado_sin_nombre_13-4" x1="0.67" y1="626.29" x2="1334.33" y2="626.29" xlink:href="#Degradado_sin_nombre_13"/><linearGradient id="Degradado_sin_nombre_13-5" x1="667.52" y1="103.69" x2="784.03" y2="103.69" xlink:href="#Degradado_sin_nombre_13"/><linearGradient id="Degradado_sin_nombre_13-6" x1="638.17" y1="735.61" x2="762.7" y2="735.61" xlink:href="#Degradado_sin_nombre_13"/><linearGradient id="Degradado_sin_nombre_13-7" x1="424.91" y1="724.75" x2="506.53" y2="724.75" xlink:href="#Degradado_sin_nombre_13"/><linearGradient id="Degradado_sin_nombre_13-8" x1="23.33" y1="725.22" x2="122.41" y2="725.22" xlink:href="#Degradado_sin_nombre_13"/><linearGradient id="Degradado_sin_nombre_13-9" x1="1087.45" y1="744.99" x2="1173.45" y2="744.99" xlink:href="#Degradado_sin_nombre_13"/><linearGradient id="Degradado_sin_nombre_13-10" x1="333.12" y1="744.95" x2="417.86" y2="744.95" xlink:href="#Degradado_sin_nombre_13"/><linearGradient id="Degradado_sin_nombre_13-11" x1="927.57" y1="746.44" x2="1010.39" y2="746.44" xlink:href="#Degradado_sin_nombre_13"/><linearGradient id="Degradado_sin_nombre_13-12" x1="511.98" y1="745.58" x2="588.89" y2="745.58" xlink:href="#Degradado_sin_nombre_13"/><linearGradient id="Degradado_sin_nombre_13-13" x1="1178.63" y1="745.58" x2="1255.55" y2="745.58" xlink:href="#Degradado_sin_nombre_13"/><linearGradient id="Degradado_sin_nombre_13-14" x1="265.98" y1="745.83" x2="333.32" y2="745.83" xlink:href="#Degradado_sin_nombre_13"/><linearGradient id="Degradado_sin_nombre_13-15" x1="190.81" y1="745.45" x2="255.25" y2="745.45" xlink:href="#Degradado_sin_nombre_13"/><linearGradient id="Degradado_sin_nombre_13-16" x1="1015.19" y1="745.87" x2="1079.51" y2="745.87" xlink:href="#Degradado_sin_nombre_13"/><linearGradient id="Degradado_sin_nombre_13-17" x1="128.4" y1="744.92" x2="185.57" y2="744.92" xlink:href="#Degradado_sin_nombre_13"/><linearGradient id="Degradado_sin_nombre_13-18" x1="773.04" y1="745.76" x2="817.81" y2="745.76" xlink:href="#Degradado_sin_nombre_13"/><linearGradient id="Degradado_sin_nombre_13-19" x1="873.85" y1="745.77" x2="918.75" y2="745.77" xlink:href="#Degradado_sin_nombre_13"/><linearGradient id="Degradado_sin_nombre_13-20" x1="1268.71" y1="745.79" x2="1313.56" y2="745.79" xlink:href="#Degradado_sin_nombre_13"/><linearGradient id="Degradado_sin_nombre_13-21" x1="1114.39" y1="686.61" x2="1151.11" y2="686.61" xlink:href="#Degradado_sin_nombre_13"/></defs><path class="cls-1" d="M32.66,550.74v-8.49c8.79-1.28,17.43-2,25.83-3.85,28.64-6.24,48.49-27,52.48-56.49a416.89,416.89,0,0,0,3.56-54.26q.51-144.22,0-288.44a405.94,405.94,0,0,0-3.43-53.78c-4.38-31.81-23.55-51.09-55.23-57.58-7.48-1.53-15.11-2.35-23.09-3.56V16c1.43-.1,2.87-.28,4.31-.28q132.41.09,264.81.23c37.28.06,74.16,3.37,109.84,15.07,69,22.65,118.57,67.76,151,132.13,24.74,49.14,34.24,101.54,31.5,156.32C592,364.63,581,407.34,558,446.44c-31.06,52.85-77.54,83.91-137.42,95.29-34.45,6.54-69.25,9.12-104.31,9.06q-138.66-.21-277.31,0ZM200.08,27.1V35q0,191.23.09,382.47c0,15.13.81,30.31,2.11,45.4,3.38,39.35,26,65.18,64.33,74.08,22.56,5.24,45.31,4.54,68.05,1.72,33.24-4.14,63-16.22,87.72-39.43,30.56-28.74,50.95-63.8,63.6-103.54,14.87-46.68,17.68-94.39,11.25-142.75-6.05-45.54-20.64-88.08-46.42-126.32-27.6-40.92-63.48-71.52-111-87.22a201.41,201.41,0,0,0-54.33-10C257.26,28.15,229,27.84,200.08,27.1Z"/><path class="cls-2" d="M1306,395h8.22c-1.67,51.9-3.34,103.56-5,155.48H842.4v-8.21c8.66-1.29,17.29-2,25.68-3.91,30.68-6.83,50.1-29.09,53.59-61.78a416.68,416.68,0,0,0,2.67-43.37q.3-151.49-.14-303a268.79,268.79,0,0,0-4.31-49.16c-5.93-31-27.41-50-58.64-54.31-6.23-.86-12.49-1.52-19-2.3V16.1H1263c2.2,42.84,4.4,85.71,6.64,129.29l-8.58.39c-2.15-9.09-3.93-18-6.38-26.77-14-49.85-53-83-104.51-88.16-18.19-1.83-36.53-2.64-54.82-3-28.29-.47-56.6-.12-85.3-.12V263.59c12.08,0,24.2.41,36.28-.12a276.48,276.48,0,0,0,34.27-3.2c27.78-4.71,45.07-21.86,52.86-48.34,3.5-11.9,4.9-24.43,7.23-36.68.31-1.62.49-3.26.77-5.15h9c-.54,69.87-1.07,139.43-1.61,209.33h-8.33c-2.63-12.71-4.85-25.46-8-38a93.11,93.11,0,0,0-20.82-39.9c-10.36-11.66-23.67-18.11-38.55-21.66-15.92-3.79-48.93-5.59-63.36-3.58-.07,1.21-.22,2.49-.21,3.78,0,39.16-.46,78.34.4,117.48.46,21.09,1.49,42.45,5.41,63.1,7.64,40.22,32.83,64.9,73,73.24,39.64,8.23,79.26,6.94,118.06-4.58,43.31-12.86,69.94-43.46,84.92-84.86C1297.16,428.55,1301.05,412,1306,395Z"/><path class="cls-3" d="M1334.34,574.1v18.37H.5V574.1Z"/><path class="cls-4" d="M1334.33,617.09v18.39H.67V617.09Z"/><path class="cls-5" d="M671.13,206.88c-1.27-2.86-2.29-5.12-3.61-8.07,22.12-9.68,43.43-20.54,57.9-40.81,14.12-19.79,23.72-41.41,26.64-66.37-4.44,1-8.22,2.07-12.07,2.59-25.89,3.46-47.62-10.76-53.46-31.71-6.46-23.2,4.55-47.91,26-57.8,21-9.69,45.65-2.24,59.09,18.06,10.81,16.31,13.73,34.77,11.92,53.62-5.22,54.46-31.49,95.19-80.92,120-5.77,2.89-12,4.86-18.15,7C680.25,204.73,675.85,205.63,671.13,206.88Z"/><path class="cls-6" d="M646.8,713.94h-8.63c4.37-4,8.4-7.67,12.38-11.39,3.8-3.55,3.1-10.26,7.68-13.3l1.55.74v20.74H705c0,9.42-.08,18.36,0,27.31.1,8.65-.05,17.34.69,25.94.78,9,5.42,13.26,13.54,13.71,9,.49,17.69-4.61,18.26-12.79,1-14.56.78-29.24.33-43.84-.08-2.43-3.69-5-6-7-1.19-1-3.21-1.14-4.62-2.8h24.51v5.21c0,14.66,0,29.31.08,44,.09,13.42.24,13.55,11,20.22L740,781.87c-.53-2.76-1-5.17-1.56-8.08a39.69,39.69,0,0,1-24.58,8c-14.56-.29-21.79-7.44-21.83-21.88,0-11.66,0-23.32-.16-35-.14-8.81-4.59-12.09-13.44-11.27-5.92.55-11.94.11-17.88.11-.33.69-.71,1.11-.71,1.54,0,16.49-.12,33,0,49.47.05,5.47,2,10.14,7.75,12.16s10.43.26,14.13-4.41a11,11,0,0,0,1-1.79l1.3.89a20.12,20.12,0,0,1-2,3.64c-6.16,7.23-23.72,9.27-30.79,2.91-2.46-2.21-4.07-6.57-4.17-10-.45-16.14-.23-32.31-.26-48.47Z"/><path class="cls-7" d="M467.22,668.79l26.08-3.11V672q0,43.49,0,87a66.52,66.52,0,0,0,.55,8.46c1,7.17,3.35,9.62,10.58,11.24a19.48,19.48,0,0,1,2.08.69v1.29l-25,3.17c-.35-2.8-.63-5.07-1-7.79-11.79,5.57-23.74,8.2-36.19,3A29.52,29.52,0,0,1,429.75,766c-8.19-14.39-5.74-35,5.54-46.48s26.27-12.59,44.57-2.7a29,29,0,0,0,.5-3.77c.05-8,.08-16,0-24C480.27,676,479,674.24,467.22,668.79ZM480.79,745c-.62-6.54-.82-13-2-19.4a15.84,15.84,0,0,0-12.55-13.36c-6.88-1.68-12.36,1-16.94,5.94a22.09,22.09,0,0,0-3.26,4.4c-8.7,15.88-8.58,31.81.45,47.44,3.83,6.62,9.71,10.55,17.8,9.45,7.33-1,13-6.66,14.5-15.18C480,758,480.18,751.46,480.79,745Z"/><path class="cls-8" d="M122.41,748.3c-1.07,12.19-5.46,22.64-16.61,29.26-32.4,19.22-76.61-2.24-81.65-39.46-1.93-14.23-.56-27.93,5.48-41,10.83-23.43,39-36.12,66.06-29.82,3.72.87,7.37,2.05,11,3.19,7.18,2.23,7.17,2.26,13.32-3.22v37.94c-1-2.08-1.86-3.84-2.76-5.55-3.69-7-6.4-14.84-11.32-20.86-11.83-14.5-32.09-15-45.4-1.81S42.72,707,42.8,725.31c.05,10.75,1.59,21.24,6.43,31a40.38,40.38,0,0,0,53.54,18.86c9.1-4.18,13.74-11.69,16.37-20.85.62-2.14,1.21-4.3,1.81-6.44Z"/><path class="cls-9" d="M1125.14,780.36h-37.69a22.38,22.38,0,0,1,3-1.84c7.76-2.34,9.82-4.49,10-12.64.29-13,.18-26,0-39-.07-7-3.39-11.68-11.13-12.45.07-.52.15-1.05.22-1.57l22.75-3.27c.61,3.35,1.15,6.36,1.77,9.81,9.2-8.37,19.62-11.48,31.52-8.82,10.31,2.31,15.1,8.08,15.25,18.57.14,9.83,0,19.66,0,29.48,0,9.05-1.25,18.84,12.49,20.31l-1,1.17H1135a26.1,26.1,0,0,1,3.28-1.76c7.14-2.19,9.22-4.5,9.35-12.09.21-12.65.27-25.31,0-38-.22-9.69-5.28-14.92-14.11-15.52-9.42-.63-17.53,4.7-18.75,13.53-1.08,7.87-.86,15.92-1.07,23.9-.13,5.16-.08,10.33.06,15.49.2,7.69,1.83,9.79,9.08,12.36a26.25,26.25,0,0,1,2.57,1.23Z"/><path class="cls-10" d="M335.15,713.16a25.25,25.25,0,0,1,3.15-.84c6.39-.88,12.78-1.7,19.55-2.6.55,3.29,1,6.2,1.6,9.54,1.35-1,2.6-2,3.87-2.9,9.6-7,20.09-8.57,31.21-4.64,7.49,2.65,11.62,8.07,11.64,16.25,0,11.33.17,22.66,0,34-.12,8.12,1,15.14,10.81,16.75.26,0,.48.39.68.63s.08.3.21.95H381.6l-.32-.75a13.79,13.79,0,0,1,3.12-1.37c5.8-1,8.35-5,8.45-10.22.27-13.81.45-27.65-.07-41.46-.33-8.56-5.95-13.3-14.29-13.69-9.26-.44-17.12,4.81-18.3,13.46-1.08,7.88-.89,15.93-1.09,23.91-.14,5.16-.07,10.33.07,15.49.2,7.76,1.79,9.83,9,12.41a4.25,4.25,0,0,1,2.43,2.12H333.12a18.48,18.48,0,0,1,2.49-1.59c8.61-2.86,10.23-4.79,10.38-13.88.19-11.33,0-22.66.13-34,.06-8-1-15.25-11.6-16.31Z"/><path class="cls-11" d="M927.92,711h23.91v5.27c0,13.15,0,26.31,0,39.46a60.15,60.15,0,0,0,.45,7.47c1.28,9.92,5.74,14.32,14.47,14.48,9.59.18,17.31-5.38,17.87-14.48.82-13.43.6-26.93.55-40.4,0-4.86-2.81-8-7.66-9.18a5.49,5.49,0,0,1-3.49-2.48h24.44v14c0,11.32,0,22.65.06,34,.06,8.77-1.11,18.26,11.82,20.3l-.87,1.25-22.65,1.2c-.54-2.82-1-5.23-1.54-8.08a39.58,39.58,0,0,1-24.7,8c-14.49-.32-21.67-7.5-21.7-22,0-11.15,0-22.31-.1-33.47-.09-8.54-1.25-10-9.34-13.08a11.66,11.66,0,0,1-1.92-1.18Z"/><path class="cls-12" d="M550.46,781.74c-20.57,0-37.85-15.39-38.46-34.31-.47-14.73,6.89-25.21,18.91-32.36,12.71-7.57,26.08-7.47,39-.11,15,8.54,21.94,24.55,17.88,39.8C583.57,770.43,567.94,781.74,550.46,781.74Zm23.47-35.87c-.54-9.67-2.78-18.78-9-26.43-8.51-10.4-21.48-10.21-29.83.29-10.83,13.61-10.86,37.34-.08,51.3,9.37,12.12,23.94,11.48,32.24-1.48C571.84,762.35,573.45,754.26,573.93,745.87Z"/><path class="cls-13" d="M1216.94,781.74c-20.31,0-37.52-15.29-38.27-34-.6-14.94,6.8-25.57,19-32.77,12.93-7.6,26.44-7.38,39.38.33,14.87,8.86,21.55,25,17.1,40.07C1249.58,771,1234.34,781.77,1216.94,781.74Zm-23.33-36.16c.15,9.82,2.49,19.52,9.75,27.43,8.5,9.25,20.52,8.88,28.56-.74,11.6-13.86,11.07-40.35-1.08-53.69-8.56-9.4-20.86-9.05-28.89.86C1195.93,726.87,1193.68,735.57,1193.61,745.58Z"/><path class="cls-14" d="M297.11,778.83c-7.33,4.37-19,3.86-25.39-1.12-8.71-6.75-7.32-20.77,2.87-26.46,3.28-1.84,7.1-2.72,10.72-3.93,2-.68,4.17-1.11,6.25-1.71,13.4-3.92,16.78-9.82,13.47-23.51-1.4-5.79-5.48-9.65-10.87-10.26s-9.23,2-11.79,8c-1.64,3.83-3.29,8-8.32,6.61a8.65,8.65,0,0,1-5.16-5.62c-.83-4.86,3.27-6.84,7.1-8.28,10.92-4.1,21.83-3.64,32.66.44,7.11,2.68,10.33,7.84,10.27,15.4-.09,11.82,0,23.65.06,35.47a36.11,36.11,0,0,0,.33,6c1.18,6.92,7.16,9.07,12.43,4.48.58-.5.74-1.49,1.45-1.89.67,4.24-1.28,6.76-5.6,8.33-8,2.94-14.51.56-21-7.68L297,779c11.87-10.5,8.66-24.4,9.09-38-5.67,3.46-11.05,6.14-15.67,9.78A30.72,30.72,0,0,0,282,760.86a14.26,14.26,0,0,0,1,14.27C286.52,780.72,291.79,779.93,297.11,778.83Z"/><path class="cls-15" d="M253.92,735.69h-47c-5.23,16,5.46,36.43,20.74,40.21,11.22,2.77,19.9-1.34,25-11.79a20.88,20.88,0,0,1,1.41-2.23l1.2.39a27.81,27.81,0,0,1-.9,4.3c-2.84,7.68-8.53,12.82-16.35,13.81-7.6,1-15.75,1.24-23.14-.45-17.07-3.93-26.17-20.36-23.63-40.25,2.1-16.5,16.74-29.53,33.61-29.92C242,709.35,253.69,719.5,253.92,735.69Zm-13-3.09c-.47-13-7.42-21.34-17.06-20.8-9,.51-17.09,10.57-16.6,20.8Z"/><path class="cls-16" d="M1078.46,735.76h-47c-4.83,16.65,5.63,36.42,21,40.16,11.22,2.74,20-1.45,24.89-11.92a3.32,3.32,0,0,1,2.25-1.91,17,17,0,0,1-.45,4.13c-3.33,9.09-10.35,13.35-19.51,15-19.61,3.53-36.39-5.14-42.09-21.91-8.81-25.95,9-50.82,35.56-49.53C1068,710.51,1078.44,720.92,1078.46,735.76Zm-13-3.16c-.45-13-7.4-21.34-17-20.8-9,.5-17.08,10.53-16.62,20.8Z"/><path class="cls-17" d="M130.29,712.81l21.18-3.11c.64,3.94,1.22,7.47,1.91,11.72,5.76-8.13,13.1-12.17,22.43-11.53a13.78,13.78,0,0,1,7.59,3,5.48,5.48,0,0,1,.36,8.43c-2.5,2.53-5.46,2-8-.29-1.12-1-2-2.19-3.14-3.21-5.17-4.84-11.54-4.19-14.3,2.3A53.07,53.07,0,0,0,154.36,737c-.64,9.12-.24,18.32-.16,27.48s1.15,10.68,9.67,13.93a2.61,2.61,0,0,1,1.52,1.78h-37a23.57,23.57,0,0,1,3.24-1.74c6.94-2.12,9.17-4.36,9.34-11.61.3-13.49.19-27,.07-40.48-.06-7-3.85-11.05-11.08-12C130.08,713.84,130.19,713.33,130.29,712.81Z"/><path class="cls-18" d="M773.76,760.12c1.31,2.8,2.49,5.68,4,8.4,2.81,5.13,6.75,9.05,12.59,10.64s12.09-.49,15-5.14a14,14,0,0,0-2.09-16.6,50.83,50.83,0,0,0-8.13-5.7c-4.48-2.85-9.25-5.3-13.55-8.41-7.21-5.21-9.89-13.39-7.41-21.12,2.32-7.25,9.5-12.37,18.14-12.37,6,0,11.93.66,18.41,1.06.38,5.89.74,11.7,1.11,17.52l-1.41.42q-.86-2.28-1.72-4.56c-2.3-5.94-6.33-10.11-12.49-12a10.65,10.65,0,0,0-12.23,4.4c-2.86,4.34-2.84,9.74.91,13.32,2.82,2.69,6.41,4.66,9.85,6.59,4.48,2.52,9.43,4.28,13.7,7.09,8.15,5.36,11.14,14.41,8.45,23.61-2.39,8.15-10.31,14.08-19.59,14.37-4,.13-8-.18-12-.38s-7.93-.51-12.25-.8V760.34Z"/><path class="cls-19" d="M873.85,780.5V760.35l.87-.42c.7,1.65,1.38,3.3,2.1,4.94,2.86,6.43,6.75,11.88,13.87,14.1,6.27,2,12.93-.3,15.79-5.27a14.09,14.09,0,0,0-3-16.9c-2.73-2.36-6.06-4-9.14-6-4.2-2.68-8.64-5-12.59-8A18.45,18.45,0,0,1,875,722.29c2.22-7.09,9.26-12.36,17.58-12.44,6.13-.06,12.27.62,19,1q.58,8.76,1.16,17.5l-1.37.45c-.59-1.49-1.19-3-1.77-4.45-2.27-5.94-6.26-10.15-12.42-12A10.53,10.53,0,0,0,884.7,717c-2.73,4.45-2.51,9.69,1.35,13.27a47.77,47.77,0,0,0,9.5,6.26c4.36,2.4,9.14,4.09,13.32,6.75,8.45,5.39,11.64,14.49,9,23.87-2.41,8.37-10.43,14.29-20,14.5-4,.09-8-.24-12-.44C882,781.06,878.24,780.78,873.85,780.5Z"/><path class="cls-20" d="M1268.71,780.44V760.28l.78-.25c1,2.31,2,4.67,3.11,6.93,3,5.85,7,10.5,13.66,12.26,5.9,1.57,12.13-.71,14.91-5.37s2.11-12.18-2-16.22a48.67,48.67,0,0,0-8.07-5.78c-4.48-2.85-9.26-5.28-13.58-8.36-7.45-5.32-10.21-13.69-7.58-21.5,2.43-7.21,9.61-12.21,18.29-12.17,6,0,11.89.68,18.25,1.08.35,6,.69,11.78,1,17.56l-1.54.35c-.49-1.43-.94-2.86-1.46-4.27-2.13-5.79-5.93-10-11.83-12-5.28-1.81-10.25-.12-13.08,4.34-3,4.7-2.55,10.3,1.82,14,3,2.54,6.67,4.29,10.15,6.2,4.21,2.31,8.8,4,12.77,6.71,8,5.4,11,14.55,8.22,23.7-2.4,7.92-10.23,13.73-19.25,14.19a69.31,69.31,0,0,1-7.49,0C1280.19,781.32,1274.59,780.86,1268.71,780.44Z"/><path class="cls-21" d="M1114.75,692.71c-.87-4.57-.25-8.45,2.85-11.6s6.92-2.89,10.67-1.41c3.08,1.21,6,2.72,9.07,4.09,6.81,3.11,8.67,2.7,12.89-2.85,2.91,6.54-1.77,14.33-8.79,13.6-4.45-.47-8.87-2.48-13-4.46C1121.44,686.72,1119.51,686.83,1114.75,692.71Z"/></svg>